{"title":"The Cabin in the Woods TS XViD AC3-ADTRG","uid":7214923,"size":1307434534,"categoryP":"video","categoryS":"movies","magnet":"?xt=urn:btih:dbc80e1d277688d5fb34359839b1cf0b6d8a03a7&amp;dn=The+Cabin+in+the+Woods+TS+XViD+AC3-ADTRG&amp;tr=udp%3A%2F%2Ftracker.openbittorrent.com%3A80&amp;tr=udp%3A%2F%2Fopen.demonii.com%3A1337&amp;tr=udp%3A%2F%2Ftracker.coppersurfer.tk%3A6969&amp;tr=udp%3A%2F%2Fexodus.desync.com%3A6969","seeders":4,"leechers":0,"uploader":"Hackulus","files":-1,"time":1335351062,"description":"[img]http://imgcrave.com/u/Y50A7.png[/img]\n\n\nThe.Cabin.in.the.Woods.TS.XViD.AC3-ADTRG\n\nFive friends go for a break at a remote cabin in the woods, where they get more than they bargained for. Together, they must discover the truth behind the cabin in the woods.\n &lt;a href=&quot;\nhttp://www.imdb.com/title/tt1259521/&quot; rel=&quot;nofollow&quot; target=&quot;_NEW&quot;&gt;\nhttp://www.imdb.com/title/tt1259521/&lt;/a&gt;\n\nSource - Cam  Lumix ,  cheersto a friend for giving to me Thanks\nSource -   Line        Dragon Exclusive, cheers Bro as always awesome work Bro\n\n\nComplete name                            : The.Cabin.in.the.Woods.TS.XViD.AC3-ADTRG.avi\nFormat                                   : AVI\nFormat/Info                              : Audio Video Interleave\nFile size                                : 1.20 GiB\nDuration                                 : 1h 29mn\nOverall bit rate                         : 1 920 Kbps\n\nVideo\nID                                       : 0\nFormat                                   : MPEG-4 Visual\nCodec ID                                 : XVID\nDuration                                 : 1h 29mn\nBit rate                                 : 1 716 Kbps\nWidth                                    : 640 pixels\nHeight                                   : 264 pixels\nDisplay aspect ratio                     : 2.40:1\nFrame rate                               : 29.640 fps\nStream size                              : 1.07 GiB (89%)\n\nAudio\nID                                       : 1\nFormat                                   : AC-3\nDuration                                 : 1h 29mn\nBit rate                                 : 192 Kbps\nChannel(s)                               : 2 channels\nChannel positions                        : Front: L R\nStream size                              : 122 MiB (10%)\n &lt;a href=&quot;\nhttp://imgcrave.com/u/tUpzY.jpg&quot; rel=&quot;nofollow&quot; target=&quot;_NEW&quot;&gt;\nhttp://imgcrave.com/u/tUpzY.jpg&lt;/a&gt; &lt;a href=&quot;\nhttp://imgcrave.com/u/pWT89.jpg&quot; rel=&quot;nofollow&quot; target=&quot;_NEW&quot;&gt;\nhttp://imgcrave.com/u/pWT89.jpg&lt;/a&gt; &lt;a href=&quot;\nhttp://imgcrave.com/u/2qGW6.jpg&quot; rel=&quot;nofollow&quot; target=&quot;_NEW&quot;&gt;\nhttp://imgcrave.com/u/2qGW6.jpg&lt;/a&gt; &lt;a href=&quot;\nhttp://imgcrave.com/u/Fepn.jpg&quot; rel=&quot;nofollow&quot; target=&quot;_NEW&quot;&gt;\nhttp://imgcrave.com/u/Fepn.jpg&lt;/a&gt; &lt;a href=&quot;\nhttp://imgcrave.com/u/bS8FP.jpg&quot; rel=&quot;nofollow&quot; target=&quot;_NEW&quot;&gt;\nhttp://imgcrave.com/u/bS8FP.jpg&lt;/a&gt; &lt;a href=&quot;\nhttp://imgcrave.com/u/k9A2I.jpg&quot; rel=&quot;nofollow&quot; target=&quot;_NEW&quot;&gt;\nhttp://imgcrave.com/u/k9A2I.jpg&lt;/a&gt;\n\n","torrent":{"xt":"urn:btih:dbc80e1d277688d5fb34359839b1cf0b6d8a03a7","amp;dn":"The+Cabin+in+the+Woods+TS+XViD+AC3-ADTRG","amp;tr":["udp%3A%2F%2Ftracker.openbittorrent.com%3A80","udp%3A%2F%2Fopen.demonii.com%3A1337","udp%3A%2F%2Ftracker.coppersurfer.tk%3A6969","udp%3A%2F%2Fexodus.desync.com%3A6969"],"infoHash":"dbc80e1d277688d5fb34359839b1cf0b6d8a03a7","infoHashBuffer":{"type":"Buffer","data":[219,200,14,29,39,118,136,213,251,52,53,152,57,177,207,11,109,138,3,167]},"announce":[],"urlList":[]}}